<svg width="538" height="449" viewBox="0 0 538 449" fill="none" xmlns="http://www.w3.org/2000/svg">
<g clip-path="url(#clip0)">
<path d="M436.999 424.151H110.428L110.575 389.54C110.948 301.961 180.878 229.796 268.478 228.307C269.424 228.291 270.372 228.283 271.322 228.283H271.322C291.034 228.268 310.589 231.78 329.063 238.652C391.047 261.727 432.65 320.354 435.418 386.414L436.999 424.151Z" fill="#818185"/>
<path d="M538 424.151H0V425.497H538V424.151Z" fill="#2F2E41"/>
<path d="M268.183 269.346L282.573 279.808L296.963 402.728H330.974L319.201 262.807L272.107 244.5L268.183 269.346Z" fill="#2F2E41"/>
<path d="M208.008 230.116C208.008 230.116 204.083 274.577 219.781 275.884C235.479 277.192 295.654 262.808 295.654 262.808L324.434 364.806L367.603 342.575C367.603 342.575 341.44 227.501 325.742 220.962C310.044 214.424 257.718 201.348 257.718 201.348L219.781 207.886L208.008 230.116Z" fill="#2F2E41"/>
<path d="M302.195 400.113C302.195 400.113 294.346 430.189 299.579 432.804C302.726 434.376 305.783 436.122 308.736 438.035V432.804C308.736 432.804 315.277 439.342 315.277 444.573C315.277 449.804 350.597 451.111 350.597 444.573C350.597 438.035 349.289 430.189 342.748 426.266C336.207 422.343 328.358 400.113 328.358 400.113H302.195Z" fill="#2F2E41"/>
<path d="M340.132 346.498L342.748 371.344L351.905 387.036L374.144 362.19L357.138 334.73L340.132 346.498Z" fill="#2F2E41"/>
<path d="M361.062 371.344C361.062 371.344 365.879 354.88 370.666 356.574C375.452 358.267 393.766 375.267 393.766 375.267L406.848 383.113C406.848 383.113 433.011 385.728 425.162 393.574C417.313 401.42 388.534 411.882 375.452 406.651C362.37 401.42 359.754 400.113 359.754 400.113L355.83 402.728L340.132 398.805L342.748 371.344C342.748 371.344 346.672 383.113 361.062 371.344Z" fill="#2F2E41"/>
<path d="M252.485 66.6581C269.102 66.6581 282.573 53.1925 282.573 36.5818C282.573 19.9711 269.102 6.50552 252.485 6.50552C235.868 6.50552 222.397 19.9711 222.397 36.5818C222.397 53.1925 235.868 66.6581 252.485 66.6581Z" fill="#9F616A"/>
<path d="M233.517 54.2353C233.517 54.2353 236.133 81.6962 228.284 81.6962C220.435 81.6962 229.592 115.696 250.523 115.696C271.453 115.696 279.302 75.1579 279.302 75.1579C279.302 75.1579 264.913 69.9272 267.529 52.9276C270.145 35.928 233.517 54.2353 233.517 54.2353Z" fill="#9F616A"/>
<path d="M231.432 79.6015L220.435 84.3116L190.589 96.9338C189.386 97.4427 188.38 98.3268 187.72 99.4542C187.06 100.582 186.783 101.892 186.929 103.19L198.196 203.309C198.196 203.309 186.423 228.155 204.737 229.462L207.354 238.616L228.284 213.77L306.774 211.155L308.082 84.3115L272.169 70.1255C272.169 70.1255 267.284 97.1217 231.432 79.6015Z" fill="#3F3D56"/>
<path d="M194.926 100.657L190.092 99.2767C189.55 99.1219 188.981 99.0838 188.423 99.1649C187.865 99.246 187.331 99.4445 186.856 99.7473C186.38 100.05 185.974 100.45 185.665 100.921C185.356 101.392 185.15 101.924 185.061 102.48L172.233 182.919C171.232 188.876 172.19 194.997 174.963 200.363C178.927 207.865 187.159 214.669 204.083 206.578L215.857 121.58L194.926 100.657Z" fill="#3F3D56"/>
<path d="M293.038 82.3501L308.736 84.9654L351.905 145.118L355.83 155.579L380.685 147.733C380.685 147.733 379.377 159.502 392.458 158.195C392.458 158.195 376.76 201.348 344.056 188.271C311.352 175.194 300.887 135.964 300.887 135.964L293.038 82.3501Z" fill="#3F3D56"/>
<path d="M311.353 108.504L252.485 84.9651L249.869 92.8113L277.34 116.349L311.353 108.504Z" fill="#CCCCCC"/>
<path d="M234.37 38.4991C235.481 38.2026 235.644 36.7277 235.682 35.5786C235.881 29.4249 239.588 23.1106 245.481 21.3191C247.742 20.6993 250.109 20.5691 252.425 20.9371C255.73 21.3772 258.922 22.4415 261.829 24.0734C263.364 24.9359 264.869 25.9748 266.61 26.2382C267.76 26.4122 272.738 27.8591 273.883 28.0627C276.4 28.5103 278.739 30.7615 281.154 29.9238C283.465 29.1223 283.977 26.1316 284.032 23.6873C284.16 18.1187 279.931 10.4115 276.206 6.26889C273.379 3.12521 269.123 1.67404 264.962 0.919463C260.102 0.138824 255.177 -0.16069 250.258 0.0252729C243.6 0.143979 236.757 0.65771 230.753 3.53763C224.749 6.41754 219.705 12.1493 219.418 18.8C219.358 20.1854 219.501 21.5766 219.384 22.9584C219.1 26.3293 217.309 29.374 216.469 32.6509C215.869 35.0554 215.779 37.5589 216.206 40.0001C216.632 42.4414 217.566 44.7661 218.947 46.8244C221.175 50.1024 230.086 53.0782 229.957 57.0392C231.568 55.3713 227.77 53.6923 229.38 52.0244C230.102 51.4736 230.613 50.6921 230.827 49.8102C231.042 48.9284 230.948 47.9995 230.56 47.1788L228.85 40.5107C228.537 39.2897 228.229 37.9681 228.702 36.7998C230.535 32.2712 232.517 38.9937 234.37 38.4991Z" fill="#2F2E41"/>
<path d="M249.869 92.8113L225.014 189.578L321.818 223.578L378.069 176.502L413.389 70.5812L355.829 112.426L249.869 92.8113Z" fill="#F2F2F2"/>
<path d="M254.614 103.294L254.28 104.559L348.468 129.404L348.802 128.14L254.614 103.294Z" fill="#E6E6E6"/>
<path d="M251.998 109.833L251.664 111.097L345.852 135.943L346.185 134.678L251.998 109.833Z" fill="#E6E6E6"/>
<path d="M250.69 116.371L250.356 117.635L344.543 142.481L344.877 141.217L250.69 116.371Z" fill="#E6E6E6"/>
<path d="M249.382 122.909L249.048 124.174L343.235 149.019L343.569 147.755L249.382 122.909Z" fill="#E6E6E6"/>
<path d="M248.073 129.448L247.74 130.712L341.927 155.558L342.261 154.293L248.073 129.448Z" fill="#E6E6E6"/>
<path d="M246.765 135.986L246.432 137.25L340.619 162.096L340.953 160.832L246.765 135.986Z" fill="#E6E6E6"/>
<path d="M245.457 142.524L245.123 143.789L339.311 168.634L339.645 167.37L245.457 142.524Z" fill="#E6E6E6"/>
<path d="M244.149 149.063L243.815 150.327L338.003 175.173L338.336 173.908L244.149 149.063Z" fill="#E6E6E6"/>
<path d="M242.841 155.601L242.507 156.865L336.694 181.711L337.028 180.447L242.841 155.601Z" fill="#E6E6E6"/>
<path d="M209.982 163.992C209.982 163.992 239.404 146.426 252.485 158.195C265.567 169.964 214.548 186.963 214.548 186.963L209.982 163.992Z" fill="#9F616A"/>
<path d="M177.92 172.579L215.857 158.195C215.857 158.195 209.316 183.04 222.397 184.348L204.083 206.578C204.083 206.578 167.455 206.578 177.92 172.579Z" fill="#3F3D56"/>
<path d="M277.749 172.042L328.089 189.002L316.176 214.96L265.836 198.001L277.749 172.042Z" fill="#E6E6E6"/>
<path d="M366.949 117.003L404.886 88.2343L394.421 123.542L355.176 152.31L366.949 117.003Z" fill="#CCCCCC"/>
<path d="M386.176 136.098L348.239 164.865L349.03 165.907L386.967 137.14L386.176 136.098Z" fill="#E6E6E6"/>
<path d="M383.56 150.482L345.623 179.25L346.413 180.292L384.351 151.524L383.56 150.482Z" fill="#E6E6E6"/>
<path d="M388.534 159.502C388.534 159.502 421.238 139.887 400.307 132.041C379.377 124.195 379.377 154.272 379.377 154.272C379.377 154.272 378.068 160.81 388.534 159.502Z" fill="#9F616A"/>
<path opacity="0.1" d="M196.888 115.696L195.58 166.695L215.856 160.91L199.504 161.463L196.888 115.696Z" fill="black"/>
<path d="M54.1425 401.087C58.2318 416.198 72.2386 425.557 72.2386 425.557C72.2386 425.557 79.6153 410.416 75.526 395.305C71.4367 380.194 57.4299 370.835 57.4299 370.835C57.4299 370.835 50.0532 385.976 54.1425 401.087Z" fill="#8985A8"/>
<path d="M60.1514 397.84C71.3726 408.759 72.7431 425.544 72.7431 425.544C72.7431 425.544 55.9207 424.626 44.6995 413.707C33.4784 402.788 32.1078 386.002 32.1078 386.002C32.1078 386.002 48.9303 386.921 60.1514 397.84Z" fill="#3F3D56"/>
<path d="M441.712 255.206H421.512V275.399H441.712V255.206Z" fill="#F2F2F2"/>
<path d="M360.911 26.3566H340.711V46.5492H360.911V26.3566Z" fill="#F2F2F2"/>
<path d="M107.061 230.975C112.639 230.975 117.161 226.455 117.161 220.879C117.161 215.303 112.639 210.782 107.061 210.782C101.483 210.782 96.9612 215.303 96.9612 220.879C96.9612 226.455 101.483 230.975 107.061 230.975Z" fill="#F2F2F2"/>
</g>
<defs>
<clipPath id="clip0">
<rect width="538" height="449" fill="white"/>
</clipPath>
</defs>
</svg>
